HIERARCHY
ROOT Hips
{
  OFFSET -187.679 86.5976 -156.378
  CHANNELS 6 Xposition Yposition Zposition Zrotation Xrotation Yrotation
  JOINT LeftUpLeg
  {
    OFFSET 8.64259 1.95398 -2.38835
    CHANNELS 3 Zrotation Xrotation Yrotation
    JOINT LeftLeg
    {
      OFFSET 43.7702 0 0
      CHANNELS 3 Zrotation Xrotation Yrotation
      JOINT LeftFoot
      {
        OFFSET 40.6238 0 0
        CHANNELS 3 Zrotation Xrotation Yrotation
        JOINT LeftToeBase
        {
          OFFSET 12.7242 0 0
          CHANNELS 3 Zrotation Xrotation Yrotation
          End Site
          {
            OFFSET 0 0 0
          }
        }
      }
    }
  }
  JOINT RightUpLeg
  {
    OFFSET -8.2249 1.95398 -2.59336
    CHANNELS 3 Zrotation Xrotation Yrotation
    JOINT RightLeg
    {
      OFFSET 43.5653 0 0
      CHANNELS 3 Zrotation Xrotation Yrotation
      JOINT RightFoot
      {
        OFFSET 40.6238 0 0
        CHANNELS 3 Zrotation Xrotation Yrotation
        JOINT RightToeBase
        {
          OFFSET 12.7242 0 0
          CHANNELS 3 Zrotation Xrotation Yrotation
          End Site
          {
            OFFSET 0 0 0
          }
        }
      }
    }
  }
  JOINT Spine
  {
    OFFSET 0.165834 0.87714 6.61349
    CHANNELS 3 Zrotation Xrotation Yrotation
    JOINT Spine1
    {
      OFFSET 7.38963 1.71661e-005 0
      CHANNELS 3 Zrotation Xrotation Yrotation
      JOINT Spine2
      {
        OFFSET 11.9445 1.14441e-005 0
        CHANNELS 3 Zrotation Xrotation Yrotation
        JOINT Spine3
        {
          OFFSET 14.7254 4.19617e-005 0
          CHANNELS 3 Zrotation Xrotation Yrotation
          JOINT Spine4
          {
            OFFSET 10.9679 0 0
            CHANNELS 3 Zrotation Xrotation Yrotation
            JOINT RightShoulder
            {
              OFFSET 2.46616 -1.6653 3.69651
              CHANNELS 3 Zrotation Xrotation Yrotation
              JOINT RightArm
              {
                OFFSET 13.0012 0 0
                CHANNELS 3 Zrotation Xrotation Yrotation
                JOINT RightForeArm
                {
                  OFFSET 28.7848 1.52588e-005 0
                  CHANNELS 3 Zrotation Xrotation Yrotation
                  JOINT RightHand
                  {
                    OFFSET 26.5688 1.52588e-005 0
                    CHANNELS 3 Zrotation Xrotation Yrotation
                    End Site
                    {
                      OFFSET 0 0 0
                    }
                  }
                }
              }
            }
            JOINT LeftShoulder
            {
              OFFSET 2.38034 -1.29275 -3.7523
              CHANNELS 3 Zrotation Xrotation Yrotation
              JOINT LeftArm
              {
                OFFSET 16.3182 6.10352e-005 0
                CHANNELS 3 Zrotation Xrotation Yrotation
                JOINT LeftForeArm
                {
                  OFFSET 27.0901 0 0
                  CHANNELS 3 Zrotation Xrotation Yrotation
                  JOINT LeftHand
                  {
                    OFFSET 24.5451 1.52588e-005 0
                    CHANNELS 3 Zrotation Xrotation Yrotation
                    End Site
                    {
                      OFFSET 0 0 0
                    }
                  }
                }
              }
            }
            JOINT Neck
            {
              OFFSET 5.0226 -0.0266342 0
              CHANNELS 3 Zrotation Xrotation Yrotation
              JOINT Head
              {
                OFFSET 6.69363 2.86102e-005 0
                CHANNELS 3 Zrotation Xrotation Yrotation
                End Site
                {
                  OFFSET 0 0 0
                }
              }
            }
          }
        }
      }
    }
  }
}
MOTION
Frames:	17
Frame Time:	0.0416667
-99.734 85.4805 -95.4352 19.4804 -54.8221 23.5002 -154.908 56.1127 75.3995 -70.5746 5.23444 -11.686 96.1955 11.9248 -10.5732 25.2519 5.31492 -19.5995 -175.954 44.3872 65.5801 -62.5666 10.463 -7.21472 65.6236 -2.98372 -3.01487 17.2769 -1.93281 0.406023 -0.0765088 11.677 -91.6555 3.49819 -0.813435 -3.23857 -8.17644 -0.95511 -3.1997 -30.6792 0.196907 -3.33325 -10.6665 0.196908 -3.33325 86.021 -41.8166 -109.367 -9.50212 -17.3302 -5.76875 -13.0284 8.17481 -27.3059 -15.731 0.0323166 -5.37068 -92.7472 -33.1637 69.5757 16.4718 23.3531 -56.9295 24.9026 -14.8212 -78.7705 3.22204 -0.00956237 -2.60627 30.4338 0.417389 -7.98632 9.18882 4.61862 9.46053 
-95.3355 84.0799 -89.9645 32.0132 -56.2678 35.1295 -159.882 46.0529 76.6022 -70.3311 9.85165 -9.22966 100.195 15.3271 -7.78968 25.4762 5.39977 -19.7947 -170.442 42.4792 66.5656 -81.7629 0.310994 -9.86475 67.5596 -3.55501 -4.87562 14.4349 -3.75633 3.44362 -0.476801 11.2902 -91.7099 4.25654 -1.64581 -3.33918 -7.41748 -1.7911 -3.26363 -29.9198 -0.56694 -3.67896 -9.9071 -0.56694 -3.67897 85.818 -45.5667 -108.399 1.5584 -15.1994 10.156 -15.8253 4.84266 -38.729 -17.2937 -0.457953 -1.89563 -92.5791 -33.9243 70.182 17.6327 28.445 -49.0907 28.2525 -19.736 -89.0035 3.45213 0.0253095 -1.98813 25.4516 1.83362 -8.32873 10.7466 5.95311 10.3419 
-91.001 82.6392 -84.5259 45.0028 -56.885 46.6088 -163.982 35.1354 77.2524 -70.1951 10.193 -6.70967 103.408 16.8751 -7.83208 27.2528 5.80188 -20.0706 -169.1 44.3777 69.7976 -96.8099 5.20031 -7.97154 72.6671 -5.31067 -4.20637 16.8391 -4.50697 6.41109 -0.809293 10.9704 -91.4972 4.89486 -2.23233 -2.90343 -6.77721 -2.3579 -2.80245 -29.2924 -1.25713 -3.43955 -9.27978 -1.25712 -3.43954 87.4319 -47.0075 -105.39 15.1896 -10.4929 26.0673 -24.2815 -1.82666 -51.3601 -21.3974 -1.645 3.90381 -90.6866 -30.7 72.4645 21.666 25.9318 -47.2679 32.4582 -24.4714 -98.1704 3.17486 0.0426539 -1.51729 21.506 2.23517 -11.8462 11.1635 7.56979 12.9681 
-86.436 81.698 -79.0321 52.5057 -54.9637 54.7569 -167.495 26.8087 78.7494 -68.1559 10.1792 -4.39201 105.096 17.6167 -8.00718 30.3219 6.13119 -19.2841 -174.554 52.8064 77.6697 -104.83 17.9074 -5.12453 78.6417 -6.85409 -3.28131 20.272 -2.89509 4.21651 -1.40433 10.5664 -91.3367 5.69576 -3.36421 -2.53932 -5.97302 -3.47268 -2.38877 -28.5091 -2.44598 -3.43264 -8.49646 -2.44597 -3.43265 88.9632 -45.4879 -103.385 29.2188 -10.8364 38.2997 -29.7738 -3.04357 -57.5813 -22.5949 -2.30755 6.80682 -87.4789 -24.6576 76.6788 22.8859 16.0247 -45.5694 29.6413 -24.6939 -106.202 6.65334 0.379401 1.83482 20.063 4.99495 -13.0747 10.1638 10.2477 12.4489 
-81.467 81.5229 -72.664 53.9362 -53.4742 60.0853 -169.353 19.3445 83.227 -62.935 11.2843 -2.64054 104.434 17.1538 -8.30535 32.1354 6.84066 -20.727 173.345 62.1592 94.4083 -105.258 19.2382 -3.2433 84.1247 -8.11214 -2.4995 21.5631 -2.52213 3.91169 -1.8922 10.1443 -91.4477 6.52211 -4.39466 -2.69062 -5.14375 -4.50878 -2.4944 -27.6956 -3.38335 -3.887 -7.68297 -3.38335 -3.88701 92.9282 -40.4456 -98.029 44.2564 -15.5391 47.2909 -35.7968 -2.00873 -62.3484 -20.241 -1.9799 6.38237 -84.5852 -16.3073 80.3782 24.3137 9.18168 -44.7789 30.636 -24.7718 -108.899 10.479 0.563305 1.59002 19.6066 8.53435 -13.4311 9.55011 13.4661 11.2661 
-75.0404 82.2937 -65.7338 53.5598 -53.1226 63.8867 -170.823 9.295 85.1559 -51.7704 16.186 -0.442424 96.5982 16.7222 -2.76567 38.3144 7.89173 -20.9487 160.649 67.5997 111.879 -97.5694 15.8556 -0.679917 87.2288 -8.3065 0.33548 23.7774 -2.06772 3.83047 -2.70312 9.82496 -92.0449 7.11412 -6.27803 -3.74941 -4.54633 -6.43682 -3.4689 -27.1182 -4.86246 -5.46297 -7.10558 -4.86246 -5.46298 94.6076 -30.1145 -97.4224 57.5071 -20.6828 57.2749 -50.8797 0.608609 -71.1582 -17.7691 -1.85136 7.19812 -82.0122 -11.2978 85.644 24.8849 7.49463 -42.6508 28.9192 -24.4283 -111.405 9.05927 0.396718 0.618987 19.8795 14.4319 -7.21005 8.64907 16.8492 8.77324 
-67.6402 83.669 -58.71 52.2513 -54.8775 65.7751 -173.595 -2.83514 86.5142 -34.4246 20.0443 3.1895 81.5708 11.8932 2.73052 44.954 8.98522 -21.158 153.262 69.6534 123.505 -85.5075 7.87084 2.49003 85.9533 -8.12107 -0.0357994 27.222 -1.78442 5.10561 -2.68334 9.65851 -92.2025 7.42879 -6.31073 -4.03952 -4.23224 -6.48226 -3.75734 -26.796 -4.80677 -5.74888 -6.78336 -4.80676 -5.74888 94.6332 -31.7431 -96.9108 59.352 -22.9102 63.792 -61.4042 7.32926 -77.2568 -14.2453 -1.06052 3.73104 -81.7045 -5.69404 84.7825 27.8734 9.78532 -42.9425 30.9025 -26.4009 -110.859 8.8958 0.328489 0.0197407 22.8502 16.333 -7.16865 6.4971 18.6179 8.86932 
-59.5055 85.3087 -51.261 49.2169 -57.6805 65.3535 -177.266 -9.83043 83.8498 -24.8903 23.7946 7.96889 59.9204 1.32154 4.11956 42.3933 7.26475 -15.9346 154.302 69.0317 127.386 -74.548 9.25451 5.01354 84.4139 -7.29937 2.48654 27.1178 -1.86107 5.2828 -2.51941 9.44653 -92.5746 7.82931 -6.15189 -4.75353 -3.83478 -6.35491 -4.47797 -26.3689 -4.44189 -6.38014 -6.3562 -4.4419 -6.38015 94.1354 -32.9939 -97.5748 52.9529 -26.0686 64.5112 -69.5479 14.2106 -81.9096 -14.7963 -1.08845 3.61381 -82.1715 -6.53952 83.5908 28.3825 13.425 -42.5814 30.6072 -27.673 -111.474 9.37635 0.500466 1.52182 25.5905 18.9193 -3.97704 5.06798 19.8772 7.37943 
-51.7882 85.627 -43.8065 47.019 -61.0652 63.3022 -176.941 -11.0907 82.0894 -27.3802 29.1336 7.01415 52.5184 -3.23305 -0.969707 27.544 -0.590354 0.830873 161.962 65.2261 123.594 -68.0546 8.36111 5.1891 83.9484 -7.39124 2.33491 28.4882 -1.17903 3.8895 -2.29062 9.24249 -92.5719 8.24898 -5.70221 -4.74725 -3.4172 -5.90539 -4.49164 -25.9395 -4.01484 -6.23873 -5.92683 -4.01484 -6.23874 91.8353 -36.8132 -100.893 37.8114 -26.8354 56.0257 -68.4778 18.7921 -87.3937 -14.1311 -1.31707 5.8495 -82.9813 -11.7754 83.0812 26.1536 20.3491 -43.1895 33.9398 -29.7883 -109.09 8.35869 0.490381 1.95752 26.7223 21.4969 -0.733177 6.45056 21.0435 4.40078 
-44.5688 85.4593 -37.1427 49.146 -62.9651 62.5402 -173.967 -8.01616 81.7129 -38.8462 35.444 1.96618 53.9036 -3.16019 -1.38915 36.5137 3.15897 -1.08788 169.73 59.1477 114.603 -66.2015 7.20633 3.73723 76.4311 -5.38295 2.1102 24.0318 -1.16776 1.32858 -2.00845 9.15802 -92.2146 8.45272 -4.98533 -4.07058 -3.21434 -5.15954 -3.84717 -25.7422 -3.53339 -5.37898 -5.72951 -3.53338 -5.37897 89.477 -43.8426 -103.026 16.7072 -21.0789 40.0008 -66.6333 21.8103 -95.2614 -13.9837 -1.74634 9.79177 -85.0295 -20.299 80.591 21.2897 28.5434 -40.8319 40.3911 -31.1886 -103.739 7.18042 0.390014 1.49662 30.4201 21.9575 2.02712 6.06364 20.1299 1.28293 
-37.4607 85.1973 -30.6948 52.7439 -62.9124 63.1021 -169.573 2.2061 82.4637 -62.187 26.5807 -0.475269 54.578 -2.62267 -0.913452 36.1172 3.20082 -1.82775 172.213 53.7458 107.969 -71.5696 8.54549 2.05965 82.9836 -6.99885 4.40724 26.976 -1.98503 5.59414 -1.65234 8.9969 -91.8539 8.80786 -4.12037 -3.39477 -2.86052 -4.2657 -3.21011 -25.3898 -2.91072 -4.47517 -5.3772 -2.9107 -4.47516 86.2269 -49.064 -106.637 1.23057 -7.45266 24.1023 -56.5553 23.0031 -106.699 -18.1752 -2.86034 13.2941 -88.1475 -30.8955 77.305 14.0071 34.7159 -33.5706 49.161 -30.9248 -96.4447 6.42823 0.460863 2.9196 31.5632 21.0058 4.80096 7.02775 17.9028 -1.14682 
-30.8017 85.3207 -24.1719 52.7806 -65.2042 65.5104 -164.159 17.405 88.6941 -86.6163 14.9646 0.810643 60.0208 0.292486 2.12504 29.8726 1.5735 -3.74 173.691 45.0281 106.678 -70.2811 7.63094 1.87348 88.755 -8.83384 5.23912 28.6384 -2.17739 7.37284 -0.671409 8.86608 -92.0538 9.08623 -2.25681 -3.90849 -2.58828 -2.42653 -3.80556 -25.0807 -0.979118 -4.4051 -5.068 -0.979114 -4.4051 84.887 -50.4505 -108.231 -2.43466 5.30388 6.1331 -52.7265 24.538 -113.291 -17.0497 -2.82935 14.3169 -90.427 -39.8607 75.8056 -2.25363 35.2824 -17.5597 55.3173 -29.5835 -92.8185 6.95392 0.647404 4.77761 29.4543 19.4395 8.43288 9.8699 14.9654 -2.58155 
-24.2448 85.2356 -17.3159 54.8164 -67.1881 68.9972 -163.102 34.1764 93.0104 -103.533 15.0133 3.88102 65.2527 4.22279 8.5774 23.0492 1.07028 -8.83691 175.499 34.7824 104.261 -67.3484 8.93105 1.59106 93.9243 -9.99266 8.11294 33.2576 -0.696005 5.6715 0.164626 8.74817 -92.091 9.34872 -0.61082 -4.09864 -2.32843 -0.790458 -4.06786 -24.8125 0.648136 -4.09291 -4.79981 0.648129 -4.09292 84.8856 -50.0753 -108.362 -0.121742 12.1497 -16.2564 -47.8726 23.4892 -116.029 -17.6325 -2.9898 14.7157 -89.3212 -41.5264 78.0784 -22.2679 26.9024 7.50727 47.1613 -31.568 -103.04 11.3903 0.891197 3.90702 29.4718 17.5441 9.91093 9.70466 12.4466 -3.8526 
-17.3023 84.7667 -10.8881 51.8668 -67.0954 63.6919 -164.866 50.9775 92.5146 -110.093 17.3587 5.06123 69.8454 6.82426 10.4534 21.8155 0.960778 -9.55739 176.296 27.6295 97.7818 -63.5914 10.4351 0.198319 98.9664 -10.3039 12.1539 35.9635 -0.142203 5.58278 0.97751 8.29711 -91.5849 10.2868 1.2231 -3.25493 -1.3877 1.07873 -3.30553 -23.9029 2.14445 -2.73745 -3.89024 2.14445 -2.73746 84.7908 -46.665 -109.636 3.98056 19.2275 -35.4861 -43.5903 22.1993 -118.641 -17.6787 -3.06205 15.1239 -85.3336 -37.8105 84.0328 -31.3761 20.8948 26.6488 41.2071 -34.5947 -112.19 14.8699 1.11063 3.66698 28.066 14.0374 10.6727 11.4212 8.84954 -3.95966 
-9.30212 85.0461 -3.16063 53.3511 -65.8674 61.9781 -168.861 61.9447 93.7997 -105.699 16.1511 4.74266 73.3474 8.46736 7.55422 28.1689 2.53523 -8.70878 174.968 17.2703 90.4249 -56.5908 2.44376 -1.38945 97.0828 -11.6046 6.54894 40.0632 0.820535 4.7899 1.89318 7.94349 -90.9858 11.0195 3.31216 -2.27852 -0.649454 3.20871 -2.42214 -23.213 3.84362 -1.17682 -3.2003 3.84363 -1.17682 88.9803 -39.507 -105.147 12.4769 24.6168 -48.8335 -44.8912 24.1147 -122.177 -15.0567 -2.66497 15.7022 -83.139 -32.4107 87.0954 -31.1029 22.9512 38.8755 41.124 -39.4779 -115.905 16.6124 1.26887 3.90666 28.7896 9.27356 10.0996 9.80162 4.60174 -2.97588 
-0.224754 86.8206 6.03209 60.2742 -63.1876 65.3278 -171.999 66.0051 94.2286 -93.5302 17.368 3.19617 79.2557 10.9694 5.2844 22.648 0.59752 -7.88002 172.07 3.86105 83.5412 -41.6475 -4.23188 -2.47135 84.5899 -9.50233 0.944374 47.7179 2.24825 5.06545 2.65673 7.82826 -90.3448 11.2549 5.127 -1.19205 -0.406599 5.06956 -1.41709 -23.0236 5.24758 0.408251 -3.01094 5.24759 0.408236 93.5072 -30.0541 -99.584 25.3739 29.8432 -53.8441 -41.6552 24.9758 -129.344 -14.2106 -2.47042 15.3693 -82.8205 -26.0459 86.6822 -31.7808 29.4959 46.3938 39.9315 -41.4529 -115.421 16.2127 1.30207 4.28747 31.0489 3.59558 7.5343 6.97691 0.286131 -0.867678 
9.87458 89.3078 16.397 66.7377 -58.1913 67.1411 -171.463 64.1905 89.1588 -74.7793 18.8788 -0.0113942 78.5292 9.86336 3.12338 24.7237 0.765036 -6.55831 168.015 -11.1769 78.4346 -25.4571 -8.58836 -3.24073 62.4477 -2.31247 -3.24273 48.8993 1.96981 8.00138 3.0117 7.78941 -89.4858 11.3002 6.23286 0.402686 -0.355717 6.24452 0.126885 -22.9994 5.8227 2.26361 -2.98672 5.82269 2.2636 95.4365 -24.7958 -96.9811 30.9273 34.1874 -48.5953 -35.1727 24.1882 -137.197 -15.7075 -2.64411 14.638 -82.9645 -19.273 85.0112 -36.6578 36.7095 51.4438 40.24 -42.7694 -113.208 18.501 1.44142 4.09748 36.3005 -2.34004 2.44224 1.04347 -3.22649 1.9656 
